<svg width="187" height="30" viewBox="77 0 187 30" xmlns="http://www.w3.org/2000/svg"><path d="M127.102 11.412V9.52h5.645v19.745h-5.645v-1.54c-1.53 1.401-3.498 2.245-5.645 2.245-4.873 0-8.821-4.34-8.821-9.693V18.86c0-5.352 3.949-9.694 8.82-9.694 2.148 0 4.116.843 5.646 2.245zm46.22 16.312v1.54h-5.645V.354L173.323 0v11.412c1.53-1.402 3.497-2.245 5.645-2.245 4.872 0 8.82 4.342 8.82 9.694v1.416c0 5.353-3.948 9.693-8.82 9.693-2.148 0-4.116-.844-5.645-2.246zm88.914-16.089c.592.79 1.063 1.743 1.411 2.821.213 1.13.353 2.359.353 3.878v10.93h-5.645s-.02-9.721 0-9.872v-2.115c-.02-1.546-1.367-2.889-3.176-2.821-1.306-.068-2.648.838-2.822 2.468v12.34h-5.646V9.52h5.646v1.763c1.365-1.297 2.957-2.073 4.234-2.116 3.03-.077 4.912 1.651 5.645 2.468zm-28.05-2.468c5.359 0 9.703 4.342 9.703 9.694v1.416c0 5.353-4.343 9.693-9.703 9.693-5.359 0-9.703-4.342-9.703-9.693V18.86c0-5.354 4.343-9.694 9.703-9.694zm-4.763 14.985v-3.88a4.763 4.763 0 0 0 9.526.002V14.63v4.236a4.765 4.765 0 0 0-4.763-4.763 4.765 4.765 0 0 0-4.763 4.761V14.63v9.522zM218.838.352c.856 0 1.6.283 2.23.848.63.565.945 1.34.945 2.326 0 .985-.315 1.76-.945 2.326a3.232 3.232 0 0 1-2.23.847 3.23 3.23 0 0 1-2.23-.847c-.63-.565-.946-1.34-.946-2.326s.315-1.761.946-2.326a3.232 3.232 0 0 1 2.23-.847zm-2.823 28.913V9.52h5.645v19.745h-5.645zm-7.435-4.007c.607 0 1.232-.057 1.877-.17a8.792 8.792 0 0 0 1.677-.456l1.156 4.3c-.682.276-1.715.566-2.549.767-.834.2-1.857.301-3.07.301-1.542 0-2.819-.207-3.83-.62-1.01-.415-1.82-.992-2.426-1.732-.607-.74-1.03-1.638-1.27-2.691-.24-1.054-.36-2.221-.36-3.5V4.272l5.649-.394v5.68h7.053v4.936h-7.053v6.886c0 1.18.208 2.12.625 2.823.417.703 1.258 1.054 2.521 1.054zM193.434.353c.856 0 1.6.282 2.23.847.63.565.945 1.34.945 2.326 0 .985-.315 1.76-.945 2.326a3.232 3.232 0 0 1-2.23.847c-.856 0-1.6-.282-2.23-.847-.63-.565-.945-1.34-.945-2.326s.315-1.761.945-2.326a3.232 3.232 0 0 1 2.23-.847zm-2.823 28.912V9.52h5.646v19.745h-5.646zm-17.288-9.875v.882a4.763 4.763 0 0 0 9.526.002v-1.408a4.765 4.765 0 0 0-4.763-4.763 4.765 4.765 0 0 0-4.763 4.761v.526zm-10.232-7.755c.596.8 1.065 1.757 1.41 2.821.214 1.151.354 2.385.354 3.878v10.93h-5.646V17.278c0-1.523-1.342-2.87-2.822-2.821-1.83-.05-3.176 1.296-3.176 2.82 0 0-.005.433 0 .353-.008.267 0 .415 0 .705v10.93h-5.645V17.278c0-1.523-1.343-2.87-2.823-2.821-1.83-.05-3.175 1.296-3.175 2.82v11.989h-5.645V9.52h5.645v1.763c1.353-1.27 2.966-2.072 4.587-2.116 2.693-.077 4.568 1.657 5.292 2.468.174.285.378.601.706 1.058 1.369-2.106 3.56-3.469 5.645-3.526 2.694-.077 4.569 1.657 5.293 2.468zM127.1 19.39v-.526c0-2.63-2.137-4.76-4.762-4.76a4.765 4.765 0 0 0-4.764 4.762v1.408a4.763 4.763 0 0 0 9.526-.002v-.882zm-21.875 4.233h5.293c-.746 3.753-4.363 6.347-9.174 6.347-6.152 0-9.879-3.927-9.879-10.225 0-6.487 3.745-10.578 9.526-10.578 5.854 0 9.527 3.872 9.527 9.873v2.115h-13.76v.353c.123 2.381 1.915 4.253 4.586 4.253 2.039 0 3.364-1.314 3.881-2.138zm-8.468-5.994h8.468a4.234 4.234 0 0 0-8.468 0zm-10.963 7.558c.607 0 1.232-.056 1.877-.17a8.792 8.792 0 0 0 1.677-.455l1.156 4.3c-.682.275-1.714.566-2.549.766-.834.2-1.857.301-3.07.301-1.542 0-2.819-.207-3.83-.62-1.01-.415-1.82-.992-2.426-1.732-.606-.74-1.03-1.637-1.27-2.691-.24-1.054-.36-2.22-.36-3.5V4.202l5.649-.394v5.68h7.053v4.937h-7.053v6.886c0 1.179.208 2.12.625 2.822.417.703 1.258 1.054 2.521 1.054z" fill="#383838" fill-rule="evenodd"/></svg>